STARTFONT 2.1
FONT -alevt-teletext-medium-r-normal--16-1-75-75-c-90-fontspecific-2
SIZE 1 75 75
FONTBOUNDINGBOX 9 16 0 -4
STARTPROPERTIES 10
POINT_SIZE 1
PIXEL_SIZE 16
RESOLUTION_X 75
RESOLUTION_Y 75
FONT_ASCENT 12
FONT_DESCENT 4
AVERAGE_WIDTH 90
SPACING "C"
_XMBDFED_INFO "Edited with xmbdfed 3.3."
FONT "vtxt"
ENDPROPERTIES
CHARS 256
STARTCHAR char0
ENCODING 0
SWIDTH 8640 0
DWIDTH 9 0
BBX 9 16 0 -4
BITMAP
0000
0000
0000
0000
0000
0000
0000
0000
0000
0000
0000
0000
0000
0000
0000
0000
ENDCHAR
STARTCHAR char1
ENCODING 1
SWIDTH 8640 0
DWIDTH 9 0
BBX 9 16 0 -4
BITMAP
F000
F000
F000
F000
F000
0000
0000
0000
0000
0000
0000
0000
0000
0000
0000
0000
ENDCHAR
STARTCHAR char2
ENCODING 2
SWIDTH 8640 0
DWIDTH 9 0
BBX 9 16 0 -4
BITMAP
0F80
0F80
0F80
0F80
0F80
0000
0000
0000
0000
0000
0000
0000
0000
0000
0000
0000
ENDCHAR
STARTCHAR char1
ENCODING 3
SWIDTH 8640 0
DWIDTH 9 0
BBX 9 16 0 -4
BITMAP
FF80
FF80
FF80
FF80
FF80
0000
0000
0000
0000
0000
0000
0000
0000
0000
0000
0000
ENDCHAR
STARTCHAR char0
ENCODING 4
SWIDTH 8640 0
DWIDTH 9 0
BBX 9 16 0 -4
BITMAP
0000
0000
0000
0000
0000
F000
F000
F000
F000
F000
F000
0000
0000
0000
0000
0000
ENDCHAR
STARTCHAR char1
ENCODING 5
SWIDTH 8640 0
DWIDTH 9 0
BBX 9 16 0 -4
BITMAP
F000
F000
F000
F000
F000
F000
F000
F000
F000
F000
F000
0000
0000
0000
0000
0000
ENDCHAR
STARTCHAR char2
ENCODING 6
SWIDTH 8640 0
DWIDTH 9 0
BBX 9 16 0 -4
BITMAP
0F80
0F80
0F80
0F80
0F80
F000
F000
F000
F000
F000
F000
0000
0000
0000
0000
0000
ENDCHAR
STARTCHAR char1
ENCODING 7
SWIDTH 8640 0
DWIDTH 9 0
BBX 9 16 0 -4
BITMAP
FF80
FF80
FF80
FF80
FF80
F000
F000
F000
F000
F000
F000
0000
0000
0000
0000
0000
ENDCHAR
STARTCHAR char0
ENCODING 8
SWIDTH 8640 0
DWIDTH 9 0
BBX 9 16 0 -4
BITMAP
0000
0000
0000
0000
0000
0F80
0F80
0F80
0F80
0F80
0F80
0000
0000
0000
0000
0000
ENDCHAR
STARTCHAR char1
ENCODING 9
SWIDTH 8640 0
DWIDTH 9 0
BBX 9 16 0 -4
BITMAP
F000
F000
F000
F000
F000
0F80
0F80
0F80
0F80
0F80
0F80
0000
0000
0000
0000
0000
ENDCHAR
STARTCHAR char2
ENCODING 10
SWIDTH 8640 0
DWIDTH 9 0
BBX 9 16 0 -4
BITMAP
0F80
0F80
0F80
0F80
0F80
0F80
0F80
0F80
0F80
0F80
0F80
0000
0000
0000
0000
0000
ENDCHAR
STARTCHAR char1
ENCODING 11
SWIDTH 8640 0
DWIDTH 9 0
BBX 9 16 0 -4
BITMAP
FF80
FF80
FF80
FF80
FF80
0F80
0F80
0F80
0F80
0F80
0F80
0000
0000
0000
0000
0000
ENDCHAR
STARTCHAR char0
ENCODING 12
SWIDTH 8640 0
DWIDTH 9 0
BBX 9 16 0 -4
BITMAP
0000
0000
0000
0000
0000
FF80
FF80
FF80
FF80
FF80
FF80
0000
0000
0000
0000
0000
ENDCHAR
STARTCHAR char1
ENCODING 13
SWIDTH 8640 0
DWIDTH 9 0
BBX 9 16 0 -4
BITMAP
F000
F000
F000
F000
F000
FF80
FF80
FF80
FF80
FF80
FF80
0000
0000
0000
0000
0000
ENDCHAR
STARTCHAR char2
ENCODING 14
SWIDTH 8640 0
DWIDTH 9 0
BBX 9 16 0 -4
BITMAP
0F80
0F80
0F80
0F80
0F80
FF80
FF80
FF80
FF80
FF80
FF80
0000
0000
0000
0000
0000
ENDCHAR
STARTCHAR char1
ENCODING 15
SWIDTH 8640 0
DWIDTH 9 0
BBX 9 16 0 -4
BITMAP
FF80
FF80
FF80
FF80
FF80
FF80
FF80
FF80
FF80
FF80
FF80
0000
0000
0000
0000
0000
ENDCHAR
STARTCHAR char0
ENCODING 16
SWIDTH 8640 0
DWIDTH 9 0
BBX 9 16 0 -4
BITMAP
0000
0000
0000
0000
0000
0000
0000
0000
0000
0000
0000
F000
F000
F000
F000
F000
ENDCHAR
STARTCHAR char1
ENCODING 17
SWIDTH 8640 0
DWIDTH 9 0
BBX 9 16 0 -4
BITMAP
F000
F000
F000
F000
F000
0000
0000
0000
0000
0000
0000
F000
F000
F000
F000
F000
ENDCHAR
STARTCHAR char2
ENCODING 18
SWIDTH 8640 0
DWIDTH 9 0
BBX 9 16 0 -4
BITMAP
0F80
0F80
0F80
0F80
0F80
0000
0000
0000
0000
0000
0000
F000
F000
F000
F000
F000
ENDCHAR
STARTCHAR char1
ENCODING 19
SWIDTH 8640 0
DWIDTH 9 0
BBX 9 16 0 -4
BITMAP
FF80
FF80
FF80
FF80
FF80
0000
0000
0000
0000
0000
0000
F000
F000
F000
F000
F000
ENDCHAR
STARTCHAR char0
ENCODING 20
SWIDTH 8640 0
DWIDTH 9 0
BBX 9 16 0 -4
BITMAP
0000
0000
0000
0000
0000
F000
F000
F000
F000
F000
F000
F000
F000
F000
F000
F000
ENDCHAR
STARTCHAR char1
ENCODING 21
SWIDTH 8640 0
DWIDTH 9 0
BBX 9 16 0 -4
BITMAP
F000
F000
F000
F000
F000
F000
F000
F000
F000
F000
F000
F000
F000
F000
F000
F000
ENDCHAR
STARTCHAR char2
ENCODING 22
SWIDTH 8640 0
DWIDTH 9 0
BBX 9 16 0 -4
BITMAP
0F80
0F80
0F80
0F80
0F80
F000
F000
F000
F000
F000
F000
F000
F000
F000
F000
F000
ENDCHAR
STARTCHAR char1
ENCODING 23
SWIDTH 8640 0
DWIDTH 9 0
BBX 9 16 0 -4
BITMAP
FF80
FF80
FF80
FF80
FF80
F000
F000
F000
F000
F000
F000
F000
F000
F000
F000
F000
ENDCHAR
STARTCHAR char0
ENCODING 24
SWIDTH 8640 0
DWIDTH 9 0
BBX 9 16 0 -4
BITMAP
0000
0000
0000
0000
0000
0F80
0F80
0F80
0F80
0F80
0F80
F000
F000
F000
F000
F000
ENDCHAR
STARTCHAR char1
ENCODING 25
SWIDTH 8640 0
DWIDTH 9 0
BBX 9 16 0 -4
BITMAP
F000
F000
F000
F000
F000
0F80
0F80
0F80
0F80
0F80
0F80
F000
F000
F000
F000
F000
ENDCHAR
STARTCHAR char2
ENCODING 26
SWIDTH 8640 0
DWIDTH 9 0
BBX 9 16 0 -4
BITMAP
0F80
0F80
0F80
0F80
0F80
0F80
0F80
0F80
0F80
0F80
0F80
F000
F000
F000
F000
F000
ENDCHAR
STARTCHAR char1
ENCODING 27
SWIDTH 8640 0
DWIDTH 9 0
BBX 9 16 0 -4
BITMAP
FF80
FF80
FF80
FF80
FF80
0F80
0F80
0F80
0F80
0F80
0F80
F000
F000
F000
F000
F000
ENDCHAR
STARTCHAR char0
ENCODING 28
SWIDTH 8640 0
DWIDTH 9 0
BBX 9 16 0 -4
BITMAP
0000
0000
0000
0000
0000
FF80
FF80
FF80
FF80
FF80
FF80
F000
F000
F000
F000
F000
ENDCHAR
STARTCHAR char1
ENCODING 29
SWIDTH 8640 0
DWIDTH 9 0
BBX 9 16 0 -4
BITMAP
F000
F000
F000
F000
F000
FF80
FF80
FF80
FF80
FF80
FF80
F000
F000
F000
F000
F000
ENDCHAR
STARTCHAR char2
ENCODING 30
SWIDTH 8640 0
DWIDTH 9 0
BBX 9 16 0 -4
BITMAP
0F80
0F80
0F80
0F80
0F80
FF80
FF80
FF80
FF80
FF80
FF80
F000
F000
F000
F000
F000
ENDCHAR
STARTCHAR char1
ENCODING 31
SWIDTH 8640 0
DWIDTH 9 0
BBX 9 16 0 -4
BITMAP
FF80
FF80
FF80
FF80
FF80
FF80
FF80
FF80
FF80
FF80
FF80
F000
F000
F000
F000
F000
ENDCHAR
STARTCHAR char32
ENCODING 32
SWIDTH 8640 0
DWIDTH 9 0
BBX 9 16 0 -4
BITMAP
0000
0000
0000
0000
0000
0000
0000
0000
0000
0000
0000
0000
0000
0000
0000
0000
ENDCHAR
STARTCHAR char33
ENCODING 33
SWIDTH 8640 0
DWIDTH 9 0
BBX 9 16 0 -4
BITMAP
0000
0000
1800
3C00
3C00
3C00
1800
1800
1800
0000
1800
1800
0000
0000
0000
0000
ENDCHAR
STARTCHAR char34
ENCODING 34
SWIDTH 8640 0
DWIDTH 9 0
BBX 9 16 0 -4
BITMAP
0000
6600
6600
6600
2400
0000
0000
0000
0000
0000
0000
0000
0000
0000
0000
0000
ENDCHAR
STARTCHAR char35
ENCODING 35
SWIDTH 8640 0
DWIDTH 9 0
BBX 9 16 0 -4
BITMAP
0000
0000
0000
3600
3600
7F00
3600
3600
3600
7F00
3600
3600
0000
0000
0000
0000
ENDCHAR
STARTCHAR char36
ENCODING 36
SWIDTH 8640 0
DWIDTH 9 0
BBX 9 16 0 -4
BITMAP
0C00
0C00
3E00
6300
6100
6000
3E00
0300
0300
4300
6300
3E00
0C00
0C00
0000
0000
ENDCHAR
STARTCHAR char37
ENCODING 37
SWIDTH 8640 0
DWIDTH 9 0
BBX 9 16 0 -4
BITMAP
0000
0000
0000
0000
6100
6300
0600
0C00
1800
3000
6300
4300
0000
0000
0000
0000
ENDCHAR
STARTCHAR char38
ENCODING 38
SWIDTH 8640 0
DWIDTH 9 0
BBX 9 16 0 -4
BITMAP
0000
0000
1C00
3600
3600
1C00
3B00
6E00
6600
6600
6600
3B00
0000
0000
0000
0000
ENDCHAR
STARTCHAR char39
ENCODING 39
SWIDTH 8640 0
DWIDTH 9 0
BBX 9 16 0 -4
BITMAP
0000
3000
3000
3000
6000
0000
0000
0000
0000
0000
0000
0000
0000
0000
0000
0000
ENDCHAR
STARTCHAR char40
ENCODING 40
SWIDTH 8640 0
DWIDTH 9 0
BBX 9 16 0 -4
BITMAP
0000
0000
0C00
1800
3000
3000
3000
3000
3000
3000
1800
0C00
0000
0000
0000
0000
ENDCHAR
STARTCHAR char41
ENCODING 41
SWIDTH 8640 0
DWIDTH 9 0
BBX 9 16 0 -4
BITMAP
0000
0000
3000
1800
0C00
0C00
0C00
0C00
0C00
0C00
1800
3000
0000
0000
0000
0000
ENDCHAR
STARTCHAR char42
ENCODING 42
SWIDTH 8640 0
DWIDTH 9 0
BBX 9 16 0 -4
BITMAP
0000
0000
0000
0000
0000
6600
3C00
FF00
3C00
6600
0000
0000
0000
0000
0000
0000
ENDCHAR
STARTCHAR char43
ENCODING 43
SWIDTH 8640 0
DWIDTH 9 0
BBX 9 16 0 -4
BITMAP
0000
0000
0000
0000
0000
1800
1800
7E00
1800
1800
0000
0000
0000
0000
0000
0000
ENDCHAR
STARTCHAR char44
ENCODING 44
SWIDTH 8640 0
DWIDTH 9 0
BBX 9 16 0 -4
BITMAP
0000
0000
0000
0000
0000
0000
0000
0000
0000
1800
1800
1800
3000
0000
0000
0000
ENDCHAR
STARTCHAR char45
ENCODING 45
SWIDTH 8640 0
DWIDTH 9 0
BBX 9 16 0 -4
BITMAP
0000
0000
0000
0000
0000
0000
0000
7F00
0000
0000
0000
0000
0000
0000
0000
0000
ENDCHAR
STARTCHAR char46
ENCODING 46
SWIDTH 8640 0
DWIDTH 9 0
BBX 9 16 0 -4
BITMAP
0000
0000
0000
0000
0000
0000
0000
0000
0000
0000
1800
1800
0000
0000
0000
0000
ENDCHAR
STARTCHAR char47
ENCODING 47
SWIDTH 8640 0
DWIDTH 9 0
BBX 9 16 0 -4
BITMAP
0000
0000
0000
0000
0100
0300
0600
0C00
1800
3000
6000
4000
0000
0000
0000
0000
ENDCHAR
STARTCHAR char48
ENCODING 48
SWIDTH 8640 0
DWIDTH 9 0
BBX 9 16 0 -4
BITMAP
0000
0000
3C00
6600
C300
C300
DB00
DB00
C300
C300
6600
3C00
0000
0000
0000
0000
ENDCHAR
STARTCHAR char49
ENCODING 49
SWIDTH 8640 0
DWIDTH 9 0
BBX 9 16 0 -4
BITMAP
0000
0000
1800
3800
7800
1800
1800
1800
1800
1800
1800
7E00
0000
0000
0000
0000
ENDCHAR
STARTCHAR char50
ENCODING 50
SWIDTH 8640 0
DWIDTH 9 0
BBX 9 16 0 -4
BITMAP
0000
0000
3E00
6300
0300
0600
0C00
1800
3000
6000
6300
7F00
0000
0000
0000
0000
ENDCHAR
STARTCHAR char51
ENCODING 51
SWIDTH 8640 0
DWIDTH 9 0
BBX 9 16 0 -4
BITMAP
0000
0000
3E00
6300
0300
0300
1E00
0300
0300
0300
6300
3E00
0000
0000
0000
0000
ENDCHAR
STARTCHAR char52
ENCODING 52
SWIDTH 8640 0
DWIDTH 9 0
BBX 9 16 0 -4
BITMAP
0000
0000
0600
0E00
1E00
3600
6600
7F00
0600
0600
0600
0F00
0000
0000
0000
0000
ENDCHAR
STARTCHAR char53
ENCODING 53
SWIDTH 8640 0
DWIDTH 9 0
BBX 9 16 0 -4
BITMAP
0000
0000
7F00
6000
6000
6000
7E00
0300
0300
0300
6300
3E00
0000
0000
0000
0000
ENDCHAR
STARTCHAR char54
ENCODING 54
SWIDTH 8640 0
DWIDTH 9 0
BBX 9 16 0 -4
BITMAP
0000
0000
1C00
3000
6000
6000
7E00
6300
6300
6300
6300
3E00
0000
0000
0000
0000
ENDCHAR
STARTCHAR char55
ENCODING 55
SWIDTH 8640 0
DWIDTH 9 0
BBX 9 16 0 -4
BITMAP
0000
0000
7F00
6300
0300
0300
0600
0C00
1800
1800
1800
1800
0000
0000
0000
0000
ENDCHAR
STARTCHAR char56
ENCODING 56
SWIDTH 8640 0
DWIDTH 9 0
BBX 9 16 0 -4
BITMAP
0000
0000
3E00
6300
6300
6300
3E00
6300
6300
6300
6300
3E00
0000
0000
0000
0000
ENDCHAR
STARTCHAR char57
ENCODING 57
SWIDTH 8640 0
DWIDTH 9 0
BBX 9 16 0 -4
BITMAP
0000
0000
3E00
6300
6300
6300
3F00
0300
0300
0300
0600
3C00
0000
0000
0000
0000
ENDCHAR
STARTCHAR char58
ENCODING 58
SWIDTH 8640 0
DWIDTH 9 0
BBX 9 16 0 -4
BITMAP
0000
0000
0000
0000
1800
1800
0000
0000
0000
1800
1800
0000
0000
0000
0000
0000
ENDCHAR
STARTCHAR char59
ENCODING 59
SWIDTH 8640 0
DWIDTH 9 0
BBX 9 16 0 -4
BITMAP
0000
0000
0000
0000
1800
1800
0000
0000
0000
1800
1800
1800
3000
0000
0000
0000
ENDCHAR
STARTCHAR char60
ENCODING 60
SWIDTH 8640 0
DWIDTH 9 0
BBX 9 16 0 -4
BITMAP
0000
0000
0000
0600
0C00
1800
3000
6000
3000
1800
0C00
0600
0000
0000
0000
0000
ENDCHAR
STARTCHAR char61
ENCODING 61
SWIDTH 8640 0
DWIDTH 9 0
BBX 9 16 0 -4
BITMAP
0000
0000
0000
0000
0000
7E00
0000
0000
7E00
0000
0000
0000
0000
0000
0000
0000
ENDCHAR
STARTCHAR char62
ENCODING 62
SWIDTH 8640 0
DWIDTH 9 0
BBX 9 16 0 -4
BITMAP
0000
0000
0000
6000
3000
1800
0C00
0600
0C00
1800
3000
6000
0000
0000
0000
0000
ENDCHAR
STARTCHAR char63
ENCODING 63
SWIDTH 8640 0
DWIDTH 9 0
BBX 9 16 0 -4
BITMAP
0000
0000
3E00
6300
6300
0600
0C00
0C00
0C00
0000
0C00
0C00
0000
0000
0000
0000
ENDCHAR
STARTCHAR char64
ENCODING 64
SWIDTH 8640 0
DWIDTH 9 0
BBX 9 16 0 -4
BITMAP
0000
0000
0000
3E00
6300
6300
6F00
6F00
6F00
6E00
6000
3E00
0000
0000
0000
0000
ENDCHAR
STARTCHAR char65
ENCODING 65
SWIDTH 8640 0
DWIDTH 9 0
BBX 9 16 0 -4
BITMAP
0000
0000
0800
1C00
3600
6300
6300
7F00
6300
6300
6300
6300
0000
0000
0000
0000
ENDCHAR
STARTCHAR char66
ENCODING 66
SWIDTH 8640 0
DWIDTH 9 0
BBX 9 16 0 -4
BITMAP
0000
0000
7E00
3300
3300
3300
3E00
3300
3300
3300
3300
7E00
0000
0000
0000
0000
ENDCHAR
STARTCHAR char67
ENCODING 67
SWIDTH 8640 0
DWIDTH 9 0
BBX 9 16 0 -4
BITMAP
0000
0000
1E00
3300
6100
6000
6000
6000
6000
6100
3300
1E00
0000
0000
0000
0000
ENDCHAR
STARTCHAR char68
ENCODING 68
SWIDTH 8640 0
DWIDTH 9 0
BBX 9 16 0 -4
BITMAP
0000
0000
7C00
3600
3300
3300
3300
3300
3300
3300
3600
7C00
0000
0000
0000
0000
ENDCHAR
STARTCHAR char69
ENCODING 69
SWIDTH 8640 0
DWIDTH 9 0
BBX 9 16 0 -4
BITMAP
0000
0000
7F00
3300
3100
3400
3C00
3400
3000
3100
3300
7F00
0000
0000
0000
0000
ENDCHAR
STARTCHAR char70
ENCODING 70
SWIDTH 8640 0
DWIDTH 9 0
BBX 9 16 0 -4
BITMAP
0000
0000
7F00
3300
3100
3400
3C00
3400
3000
3000
3000
7800
0000
0000
0000
0000
ENDCHAR
STARTCHAR char71
ENCODING 71
SWIDTH 8640 0
DWIDTH 9 0
BBX 9 16 0 -4
BITMAP
0000
0000
1E00
3300
6100
6000
6000
6F00
6300
6300
3300
1D00
0000
0000
0000
0000
ENDCHAR
STARTCHAR char72
ENCODING 72
SWIDTH 8640 0
DWIDTH 9 0
BBX 9 16 0 -4
BITMAP
0000
0000
6300
6300
6300
6300
7F00
6300
6300
6300
6300
6300
0000
0000
0000
0000
ENDCHAR
STARTCHAR char73
ENCODING 73
SWIDTH 8640 0
DWIDTH 9 0
BBX 9 16 0 -4
BITMAP
0000
0000
3C00
1800
1800
1800
1800
1800
1800
1800
1800
3C00
0000
0000
0000
0000
ENDCHAR
STARTCHAR char74
ENCODING 74
SWIDTH 8640 0
DWIDTH 9 0
BBX 9 16 0 -4
BITMAP
0000
0000
0F00
0600
0600
0600
0600
0600
6600
6600
6600
3C00
0000
0000
0000
0000
ENDCHAR
STARTCHAR char75
ENCODING 75
SWIDTH 8640 0
DWIDTH 9 0
BBX 9 16 0 -4
BITMAP
0000
0000
7300
3300
3300
3600
3C00
3C00
3600
3300
3300
7300
0000
0000
0000
0000
ENDCHAR
STARTCHAR char76
ENCODING 76
SWIDTH 8640 0
DWIDTH 9 0
BBX 9 16 0 -4
BITMAP
0000
0000
7800
3000
3000
3000
3000
3000
3000
3100
3300
7F00
0000
0000
0000
0000
ENDCHAR
STARTCHAR char77
ENCODING 77
SWIDTH 8640 0
DWIDTH 9 0
BBX 9 16 0 -4
BITMAP
0000
0000
C300
E700
FF00
FF00
DB00
C300
C300
C300
C300
C300
0000
0000
0000
0000
ENDCHAR
STARTCHAR char78
ENCODING 78
SWIDTH 8640 0
DWIDTH 9 0
BBX 9 16 0 -4
BITMAP
0000
0000
6300
7300
7B00
7F00
6F00
6700
6300
6300
6300
6300
0000
0000
0000
0000
ENDCHAR
STARTCHAR char79
ENCODING 79
SWIDTH 8640 0
DWIDTH 9 0
BBX 9 16 0 -4
BITMAP
0000
0000
3E00
6300
6300
6300
6300
6300
6300
6300
6300
3E00
0000
0000
0000
0000
ENDCHAR
STARTCHAR char80
ENCODING 80
SWIDTH 8640 0
DWIDTH 9 0
BBX 9 16 0 -4
BITMAP
0000
0000
7E00
3300
3300
3300
3E00
3000
3000
3000
3000
7800
0000
0000
0000
0000
ENDCHAR
STARTCHAR char81
ENCODING 81
SWIDTH 8640 0
DWIDTH 9 0
BBX 9 16 0 -4
BITMAP
0000
0000
3E00
6300
6300
6300
6300
6300
6300
6B00
6F00
3E00
0600
0700
0000
0000
ENDCHAR
STARTCHAR char82
ENCODING 82
SWIDTH 8640 0
DWIDTH 9 0
BBX 9 16 0 -4
BITMAP
0000
0000
7E00
3300
3300
3300
3E00
3600
3300
3300
3300
7300
0000
0000
0000
0000
ENDCHAR
STARTCHAR char83
ENCODING 83
SWIDTH 8640 0
DWIDTH 9 0
BBX 9 16 0 -4
BITMAP
0000
0000
3E00
6300
6300
3000
1C00
0600
0300
6300
6300
3E00
0000
0000
0000
0000
ENDCHAR
STARTCHAR char84
ENCODING 84
SWIDTH 8640 0
DWIDTH 9 0
BBX 9 16 0 -4
BITMAP
0000
0000
FF00
DB00
9900
1800
1800
1800
1800
1800
1800
3C00
0000
0000
0000
0000
ENDCHAR
STARTCHAR char85
ENCODING 85
SWIDTH 8640 0
DWIDTH 9 0
BBX 9 16 0 -4
BITMAP
0000
0000
6300
6300
6300
6300
6300
6300
6300
6300
6300
3E00
0000
0000
0000
0000
ENDCHAR
STARTCHAR char86
ENCODING 86
SWIDTH 8640 0
DWIDTH 9 0
BBX 9 16 0 -4
BITMAP
0000
0000
C300
C300
C300
C300
C300
C300
C300
6600
3C00
1800
0000
0000
0000
0000
ENDCHAR
STARTCHAR char87
ENCODING 87
SWIDTH 8640 0
DWIDTH 9 0
BBX 9 16 0 -4
BITMAP
0000
0000
C300
C300
C300
C300
C300
DB00
DB00
FF00
6600
6600
0000
0000
0000
0000
ENDCHAR
STARTCHAR char88
ENCODING 88
SWIDTH 8640 0
DWIDTH 9 0
BBX 9 16 0 -4
BITMAP
0000
0000
C300
C300
6600
3C00
1800
1800
3C00
6600
C300
C300
0000
0000
0000
0000
ENDCHAR
STARTCHAR char89
ENCODING 89
SWIDTH 8640 0
DWIDTH 9 0
BBX 9 16 0 -4
BITMAP
0000
0000
C300
C300
C300
6600
3C00
1800
1800
1800
1800
3C00
0000
0000
0000
0000
ENDCHAR
STARTCHAR char90
ENCODING 90
SWIDTH 8640 0
DWIDTH 9 0
BBX 9 16 0 -4
BITMAP
0000
0000
FF00
C300
8600
0C00
1800
3000
6000
C100
C300
FF00
0000
0000
0000
0000
ENDCHAR
STARTCHAR char91
ENCODING 91
SWIDTH 8640 0
DWIDTH 9 0
BBX 9 16 0 -4
BITMAP
0000
0000
3C00
3000
3000
3000
3000
3000
3000
3000
3000
3C00
0000
0000
0000
0000
ENDCHAR
STARTCHAR char92
ENCODING 92
SWIDTH 8640 0
DWIDTH 9 0
BBX 9 16 0 -4
BITMAP
0000
0000
0000
4000
6000
7000
3800
1C00
0E00
0700
0300
0100
0000
0000
0000
0000
ENDCHAR
STARTCHAR char93
ENCODING 93
SWIDTH 8640 0
DWIDTH 9 0
BBX 9 16 0 -4
BITMAP
0000
0000
3C00
0C00
0C00
0C00
0C00
0C00
0C00
0C00
0C00
3C00
0000
0000
0000
0000
ENDCHAR
STARTCHAR char94
ENCODING 94
SWIDTH 8640 0
DWIDTH 9 0
BBX 9 16 0 -4
BITMAP
0800
1C00
3600
6300
0000
0000
0000
0000
0000
0000
0000
0000
0000
0000
0000
0000
ENDCHAR
STARTCHAR char95
ENCODING 95
SWIDTH 8640 0
DWIDTH 9 0
BBX 9 16 0 -4
BITMAP
0000
0000
0000
0000
0000
0000
0000
0000
0000
0000
0000
0000
0000
FF80
0000
0000
ENDCHAR
STARTCHAR char96
ENCODING 96
SWIDTH 8640 0
DWIDTH 9 0
BBX 9 16 0 -4
BITMAP
3000
3000
1800
0000
0000
0000
0000
0000
0000
0000
0000
0000
0000
0000
0000
0000
ENDCHAR
STARTCHAR char97
ENCODING 97
SWIDTH 8640 0
DWIDTH 9 0
BBX 9 16 0 -4
BITMAP
0000
0000
0000
0000
0000
3C00
0600
3E00
6600
6600
6600
3B00
0000
0000
0000
0000
ENDCHAR
STARTCHAR char98
ENCODING 98
SWIDTH 8640 0
DWIDTH 9 0
BBX 9 16 0 -4
BITMAP
0000
0000
7000
3000
3000
3C00
3600
3300
3300
3300
3300
3E00
0000
0000
0000
0000
ENDCHAR
STARTCHAR char99
ENCODING 99
SWIDTH 8640 0
DWIDTH 9 0
BBX 9 16 0 -4
BITMAP
0000
0000
0000
0000
0000
3E00
6300
6000
6000
6000
6300
3E00
0000
0000
0000
0000
ENDCHAR
STARTCHAR char100
ENCODING 100
SWIDTH 8640 0
DWIDTH 9 0
BBX 9 16 0 -4
BITMAP
0000
0000
0E00
0600
0600
1E00
3600
6600
6600
6600
6600
3B00
0000
0000
0000
0000
ENDCHAR
STARTCHAR char101
ENCODING 101
SWIDTH 8640 0
DWIDTH 9 0
BBX 9 16 0 -4
BITMAP
0000
0000
0000
0000
0000
3E00
6300
7F00
6000
6000
6300
3E00
0000
0000
0000
0000
ENDCHAR
STARTCHAR char102
ENCODING 102
SWIDTH 8640 0
DWIDTH 9 0
BBX 9 16 0 -4
BITMAP
0000
0000
1C00
3600
3200
3000
7800
3000
3000
3000
3000
7800
0000
0000
0000
0000
ENDCHAR
STARTCHAR char103
ENCODING 103
SWIDTH 8640 0
DWIDTH 9 0
BBX 9 16 0 -4
BITMAP
0000
0000
0000
0000
0000
3B00
6600
6600
6600
6600
6600
3E00
0600
6600
3C00
0000
ENDCHAR
STARTCHAR char104
ENCODING 104
SWIDTH 8640 0
DWIDTH 9 0
BBX 9 16 0 -4
BITMAP
0000
0000
7000
3000
3000
3600
3B00
3300
3300
3300
3300
7300
0000
0000
0000
0000
ENDCHAR
STARTCHAR char105
ENCODING 105
SWIDTH 8640 0
DWIDTH 9 0
BBX 9 16 0 -4
BITMAP
0000
0000
1800
1800
0000
3800
1800
1800
1800
1800
1800
3C00
0000
0000
0000
0000
ENDCHAR
STARTCHAR char106
ENCODING 106
SWIDTH 8640 0
DWIDTH 9 0
BBX 9 16 0 -4
BITMAP
0000
0000
0600
0600
0000
0E00
0600
0600
0600
0600
0600
0600
6600
6600
3C00
0000
ENDCHAR
STARTCHAR char107
ENCODING 107
SWIDTH 8640 0
DWIDTH 9 0
BBX 9 16 0 -4
BITMAP
0000
0000
7000
3000
3000
3300
3600
3C00
3C00
3600
3300
7300
0000
0000
0000
0000
ENDCHAR
STARTCHAR char108
ENCODING 108
SWIDTH 8640 0
DWIDTH 9 0
BBX 9 16 0 -4
BITMAP
0000
0000
3800
1800
1800
1800
1800
1800
1800
1800
1800
3C00
0000
0000
0000
0000
ENDCHAR
STARTCHAR char109
ENCODING 109
SWIDTH 8640 0
DWIDTH 9 0
BBX 9 16 0 -4
BITMAP
0000
0000
0000
0000
0000
E600
FF00
DB00
DB00
DB00
DB00
DB00
0000
0000
0000
0000
ENDCHAR
STARTCHAR char110
ENCODING 110
SWIDTH 8640 0
DWIDTH 9 0
BBX 9 16 0 -4
BITMAP
0000
0000
0000
0000
0000
6E00
3300
3300
3300
3300
3300
3300
0000
0000
0000
0000
ENDCHAR
STARTCHAR char111
ENCODING 111
SWIDTH 8640 0
DWIDTH 9 0
BBX 9 16 0 -4
BITMAP
0000
0000
0000
0000
0000
3E00
6300
6300
6300
6300
6300
3E00
0000
0000
0000
0000
ENDCHAR
STARTCHAR char112
ENCODING 112
SWIDTH 8640 0
DWIDTH 9 0
BBX 9 16 0 -4
BITMAP
0000
0000
0000
0000
0000
6E00
3300
3300
3300
3300
3300
3E00
3000
3000
7800
0000
ENDCHAR
STARTCHAR char113
ENCODING 113
SWIDTH 8640 0
DWIDTH 9 0
BBX 9 16 0 -4
BITMAP
0000
0000
0000
0000
0000
3B00
6600
6600
6600
6600
6600
3E00
0600
0600
0F00
0000
ENDCHAR
STARTCHAR char114
ENCODING 114
SWIDTH 8640 0
DWIDTH 9 0
BBX 9 16 0 -4
BITMAP
0000
0000
0000
0000
0000
6E00
3B00
3300
3000
3000
3000
7800
0000
0000
0000
0000
ENDCHAR
STARTCHAR char115
ENCODING 115
SWIDTH 8640 0
DWIDTH 9 0
BBX 9 16 0 -4
BITMAP
0000
0000
0000
0000
0000
3E00
6300
3000
1C00
0600
6300
3E00
0000
0000
0000
0000
ENDCHAR
STARTCHAR char116
ENCODING 116
SWIDTH 8640 0
DWIDTH 9 0
BBX 9 16 0 -4
BITMAP
0000
0000
0800
1800
1800
7E00
1800
1800
1800
1800
1B00
0E00
0000
0000
0000
0000
ENDCHAR
STARTCHAR char117
ENCODING 117
SWIDTH 8640 0
DWIDTH 9 0
BBX 9 16 0 -4
BITMAP
0000
0000
0000
0000
0000
6600
6600
6600
6600
6600
6600
3B00
0000
0000
0000
0000
ENDCHAR
STARTCHAR char118
ENCODING 118
SWIDTH 8640 0
DWIDTH 9 0
BBX 9 16 0 -4
BITMAP
0000
0000
0000
0000
0000
C300
C300
C300
C300
6600
3C00
1800
0000
0000
0000
0000
ENDCHAR
STARTCHAR char119
ENCODING 119
SWIDTH 8640 0
DWIDTH 9 0
BBX 9 16 0 -4
BITMAP
0000
0000
0000
0000
0000
C300
C300
C300
DB00
DB00
FF00
6600
0000
0000
0000
0000
ENDCHAR
STARTCHAR char120
ENCODING 120
SWIDTH 8640 0
DWIDTH 9 0
BBX 9 16 0 -4
BITMAP
0000
0000
0000
0000
0000
C300
6600
3C00
1800
3C00
6600
C300
0000
0000
0000
0000
ENDCHAR
STARTCHAR char121
ENCODING 121
SWIDTH 8640 0
DWIDTH 9 0
BBX 9 16 0 -4
BITMAP
0000
0000
0000
0000
0000
6300
6300
6300
6300
6300
6300
3F00
0300
0600
7C00
0000
ENDCHAR
STARTCHAR char122
ENCODING 122
SWIDTH 8640 0
DWIDTH 9 0
BBX 9 16 0 -4
BITMAP
0000
0000
0000
0000
0000
7F00
6600
0C00
1800
3000
6300
7F00
0000
0000
0000
0000
ENDCHAR
STARTCHAR char123
ENCODING 123
SWIDTH 8640 0
DWIDTH 9 0
BBX 9 16 0 -4
BITMAP
0000
0000
0E00
1800
1800
1800
7000
1800
1800
1800
1800
0E00
0000
0000
0000
0000
ENDCHAR
STARTCHAR char124
ENCODING 124
SWIDTH 8640 0
DWIDTH 9 0
BBX 9 16 0 -4
BITMAP
0000
0000
1800
1800
1800
1800
1800
1800
1800
1800
1800
1800
0000
0000
0000
0000
ENDCHAR
STARTCHAR char125
ENCODING 125
SWIDTH 8640 0
DWIDTH 9 0
BBX 9 16 0 -4
BITMAP
0000
0000
7000
1800
1800
1800
0E00
1800
1800
1800
1800
7000
0000
0000
0000
0000
ENDCHAR
STARTCHAR char126
ENCODING 126
SWIDTH 8640 0
DWIDTH 9 0
BBX 9 16 0 -4
BITMAP
0000
0000
3B00
6E00
0000
0000
0000
0000
0000
0000
0000
0000
0000
0000
0000
0000
ENDCHAR
STARTCHAR char127
ENCODING 127
SWIDTH 8640 0
DWIDTH 9 0
BBX 9 16 0 -4
BITMAP
0000
0000
0000
7F00
7F00
7F00
7F00
7F00
7F00
7F00
7F00
0000
0000
0000
0000
0000
ENDCHAR
STARTCHAR char0
ENCODING 128
SWIDTH 8640 0
DWIDTH 9 0
BBX 9 16 0 -4
BITMAP
0000
0000
0000
0000
0000
0000
0000
0000
0000
0000
0000
0F80
0F80
0F80
0F80
0F80
ENDCHAR
STARTCHAR char1
ENCODING 129
SWIDTH 8640 0
DWIDTH 9 0
BBX 9 16 0 -4
BITMAP
F000
F000
F000
F000
F000
0000
0000
0000
0000
0000
0000
0F80
0F80
0F80
0F80
0F80
ENDCHAR
STARTCHAR char2
ENCODING 130
SWIDTH 8640 0
DWIDTH 9 0
BBX 9 16 0 -4
BITMAP
0F80
0F80
0F80
0F80
0F80
0000
0000
0000
0000
0000
0000
0F80
0F80
0F80
0F80
0F80
ENDCHAR
STARTCHAR char1
ENCODING 131
SWIDTH 8640 0
DWIDTH 9 0
BBX 9 16 0 -4
BITMAP
FF80
FF80
FF80
FF80
FF80
0000
0000
0000
0000
0000
0000
0F80
0F80
0F80
0F80
0F80
ENDCHAR
STARTCHAR char0
ENCODING 132
SWIDTH 8640 0
DWIDTH 9 0
BBX 9 16 0 -4
BITMAP
0000
0000
0000
0000
0000
F000
F000
F000
F000
F000
F000
0F80
0F80
0F80
0F80
0F80
ENDCHAR
STARTCHAR char1
ENCODING 133
SWIDTH 8640 0
DWIDTH 9 0
BBX 9 16 0 -4
BITMAP
F000
F000
F000
F000
F000
F000
F000
F000
F000
F000
F000
0F80
0F80
0F80
0F80
0F80
ENDCHAR
STARTCHAR char2
ENCODING 134
SWIDTH 8640 0
DWIDTH 9 0
BBX 9 16 0 -4
BITMAP
0F80
0F80
0F80
0F80
0F80
F000
F000
F000
F000
F000
F000
0F80
0F80
0F80
0F80
0F80
ENDCHAR
STARTCHAR char1
ENCODING 135
SWIDTH 8640 0
DWIDTH 9 0
BBX 9 16 0 -4
BITMAP
FF80
FF80
FF80
FF80
FF80
F000
F000
F000
F000
F000
F000
0F80
0F80
0F80
0F80
0F80
ENDCHAR
STARTCHAR char0
ENCODING 136
SWIDTH 8640 0
DWIDTH 9 0
BBX 9 16 0 -4
BITMAP
0000
0000
0000
0000
0000
0F80
0F80
0F80
0F80
0F80
0F80
0F80
0F80
0F80
0F80
0F80
ENDCHAR
STARTCHAR char1
ENCODING 137
SWIDTH 8640 0
DWIDTH 9 0
BBX 9 16 0 -4
BITMAP
F000
F000
F000
F000
F000
0F80
0F80
0F80
0F80
0F80
0F80
0F80
0F80
0F80
0F80
0F80
ENDCHAR
STARTCHAR char2
ENCODING 138
SWIDTH 8640 0
DWIDTH 9 0
BBX 9 16 0 -4
BITMAP
0F80
0F80
0F80
0F80
0F80
0F80
0F80
0F80
0F80
0F80
0F80
0F80
0F80
0F80
0F80
0F80
ENDCHAR
STARTCHAR char1
ENCODING 139
SWIDTH 8640 0
DWIDTH 9 0
BBX 9 16 0 -4
BITMAP
FF80
FF80
FF80
FF80
FF80
0F80
0F80
0F80
0F80
0F80
0F80
0F80
0F80
0F80
0F80
0F80
ENDCHAR
STARTCHAR char0
ENCODING 140
SWIDTH 8640 0
DWIDTH 9 0
BBX 9 16 0 -4
BITMAP
0000
0000
0000
0000
0000
FF80
FF80
FF80
FF80
FF80
FF80
0F80
0F80
0F80
0F80
0F80
ENDCHAR
STARTCHAR char1
ENCODING 141
SWIDTH 8640 0
DWIDTH 9 0
BBX 9 16 0 -4
BITMAP
F000
F000
F000
F000
F000
FF80
FF80
FF80
FF80
FF80
FF80
0F80
0F80
0F80
0F80
0F80
ENDCHAR
STARTCHAR char2
ENCODING 142
SWIDTH 8640 0
DWIDTH 9 0
BBX 9 16 0 -4
BITMAP
0F80
0F80
0F80
0F80
0F80
FF80
FF80
FF80
FF80
FF80
FF80
0F80
0F80
0F80
0F80
0F80
ENDCHAR
STARTCHAR char1
ENCODING 143
SWIDTH 8640 0
DWIDTH 9 0
BBX 9 16 0 -4
BITMAP
FF80
FF80
FF80
FF80
FF80
FF80
FF80
FF80
FF80
FF80
FF80
0F80
0F80
0F80
0F80
0F80
ENDCHAR
STARTCHAR char0
ENCODING 144
SWIDTH 8640 0
DWIDTH 9 0
BBX 9 16 0 -4
BITMAP
0000
0000
0000
0000
0000
0000
0000
0000
0000
0000
0000
FF80
FF80
FF80
FF80
FF80
ENDCHAR
STARTCHAR char1
ENCODING 145
SWIDTH 8640 0
DWIDTH 9 0
BBX 9 16 0 -4
BITMAP
F000
F000
F000
F000
F000
0000
0000
0000
0000
0000
0000
FF80
FF80
FF80
FF80
FF80
ENDCHAR
STARTCHAR char2
ENCODING 146
SWIDTH 8640 0
DWIDTH 9 0
BBX 9 16 0 -4
BITMAP
0F80
0F80
0F80
0F80
0F80
0000
0000
0000
0000
0000
0000
FF80
FF80
FF80
FF80
FF80
ENDCHAR
STARTCHAR char1
ENCODING 147
SWIDTH 8640 0
DWIDTH 9 0
BBX 9 16 0 -4
BITMAP
FF80
FF80
FF80
FF80
FF80
0000
0000
0000
0000
0000
0000
FF80
FF80
FF80
FF80
FF80
ENDCHAR
STARTCHAR char0
ENCODING 148
SWIDTH 8640 0
DWIDTH 9 0
BBX 9 16 0 -4
BITMAP
0000
0000
0000
0000
0000
F000
F000
F000
F000
F000
F000
FF80
FF80
FF80
FF80
FF80
ENDCHAR
STARTCHAR char1
ENCODING 149
SWIDTH 8640 0
DWIDTH 9 0
BBX 9 16 0 -4
BITMAP
F000
F000
F000
F000
F000
F000
F000
F000
F000
F000
F000
FF80
FF80
FF80
FF80
FF80
ENDCHAR
STARTCHAR char2
ENCODING 150
SWIDTH 8640 0
DWIDTH 9 0
BBX 9 16 0 -4
BITMAP
0F80
0F80
0F80
0F80
0F80
F000
F000
F000
F000
F000
F000
FF80
FF80
FF80
FF80
FF80
ENDCHAR
STARTCHAR char1
ENCODING 151
SWIDTH 8640 0
DWIDTH 9 0
BBX 9 16 0 -4
BITMAP
FF80
FF80
FF80
FF80
FF80
F000
F000
F000
F000
F000
F000
FF80
FF80
FF80
FF80
FF80
ENDCHAR
STARTCHAR char0
ENCODING 152
SWIDTH 8640 0
DWIDTH 9 0
BBX 9 16 0 -4
BITMAP
0000
0000
0000
0000
0000
0F80
0F80
0F80
0F80
0F80
0F80
FF80
FF80
FF80
FF80
FF80
ENDCHAR
STARTCHAR char1
ENCODING 153
SWIDTH 8640 0
DWIDTH 9 0
BBX 9 16 0 -4
BITMAP
F000
F000
F000
F000
F000
0F80
0F80
0F80
0F80
0F80
0F80
FF80
FF80
FF80
FF80
FF80
ENDCHAR
STARTCHAR char2
ENCODING 154
SWIDTH 8640 0
DWIDTH 9 0
BBX 9 16 0 -4
BITMAP
0F80
0F80
0F80
0F80
0F80
0F80
0F80
0F80
0F80
0F80
0F80
FF80
FF80
FF80
FF80
FF80
ENDCHAR
STARTCHAR char1
ENCODING 155
SWIDTH 8640 0
DWIDTH 9 0
BBX 9 16 0 -4
BITMAP
FF80
FF80
FF80
FF80
FF80
0F80
0F80
0F80
0F80
0F80
0F80
FF80
FF80
FF80
FF80
FF80
ENDCHAR
STARTCHAR char0
ENCODING 156
SWIDTH 8640 0
DWIDTH 9 0
BBX 9 16 0 -4
BITMAP
0000
0000
0000
0000
0000
FF80
FF80
FF80
FF80
FF80
FF80
FF80
FF80
FF80
FF80
FF80
ENDCHAR
STARTCHAR char1
ENCODING 157
SWIDTH 8640 0
DWIDTH 9 0
BBX 9 16 0 -4
BITMAP
F000
F000
F000
F000
F000
FF80
FF80
FF80
FF80
FF80
FF80
FF80
FF80
FF80
FF80
FF80
ENDCHAR
STARTCHAR char2
ENCODING 158
SWIDTH 8640 0
DWIDTH 9 0
BBX 9 16 0 -4
BITMAP
0F80
0F80
0F80
0F80
0F80
FF80
FF80
FF80
FF80
FF80
FF80
FF80
FF80
FF80
FF80
FF80
ENDCHAR
STARTCHAR char1
ENCODING 159
SWIDTH 8640 0
DWIDTH 9 0
BBX 9 16 0 -4
BITMAP
FF80
FF80
FF80
FF80
FF80
FF80
FF80
FF80
FF80
FF80
FF80
FF80
FF80
FF80
FF80
FF80
ENDCHAR
STARTCHAR char160
ENCODING 160
SWIDTH 8640 0
DWIDTH 9 0
BBX 9 16 0 -4
BITMAP
FF80
0880
0880
0880
0880
FF80
0880
0880
0880
0880
0880
FF80
0880
0880
0880
0880
ENDCHAR
STARTCHAR char65
ENCODING 161
SWIDTH 8640 0
DWIDTH 9 0
BBX 9 16 0 -4
BITMAP
0000
0000
0800
1C00
3600
6300
6300
7F00
6300
6300
6300
6300
0600
0300
0000
0000
ENDCHAR
STARTCHAR char162
ENCODING 162
SWIDTH 8640 0
DWIDTH 9 0
BBX 9 16 0 -4
BITMAP
0000
6600
3C00
0000
0000
0000
0000
0000
0000
0000
0000
0000
0000
0000
0000
0000
ENDCHAR
STARTCHAR char76
ENCODING 163
SWIDTH 8640 0
DWIDTH 9 0
BBX 9 16 0 -4
BITMAP
0000
0000
7800
3000
3000
3C00
3800
3000
7000
F100
3300
7F00
0000
0000
0000
0000
ENDCHAR
STARTCHAR char164
ENCODING 164
SWIDTH 8640 0
DWIDTH 9 0
BBX 9 16 0 -4
BITMAP
0000
0000
0000
4100
6300
3E00
6300
6300
6300
6300
3E00
6300
4100
0000
0000
0000
ENDCHAR
STARTCHAR char76
ENCODING 165
SWIDTH 8640 0
DWIDTH 9 0
BBX 9 16 0 -4
BITMAP
0000
0000
7B00
3300
3600
3000
3000
3000
3000
3100
3300
7F00
0000
0000
0000
0000
ENDCHAR
STARTCHAR char83
ENCODING 166
SWIDTH 8640 0
DWIDTH 9 0
BBX 9 16 0 -4
BITMAP
0C00
1800
3E00
6300
6300
3000
1C00
0600
0300
6300
6300
3E00
0000
0000
0000
0000
ENDCHAR
STARTCHAR char167
ENCODING 167
SWIDTH 8640 0
DWIDTH 9 0
BBX 9 16 0 -4
BITMAP
0000
3E00
6300
3000
1C00
3600
6300
6300
3600
1C00
0600
6300
3E00
0000
0000
0000
ENDCHAR
STARTCHAR char196
ENCODING 168
SWIDTH 8640 0
DWIDTH 9 0
BBX 9 16 0 -4
BITMAP
0000
6300
0000
0000
0000
0000
0000
0000
0000
0000
0000
0000
0000
0000
0000
0000
ENDCHAR
STARTCHAR char169
ENCODING 169
SWIDTH 8640 0
DWIDTH 9 0
BBX 9 16 0 -4
BITMAP
6600
3C00
3E00
6300
6300
3000
1C00
0600
0300
6300
6300
3E00
0000
0000
0000
0000
ENDCHAR
STARTCHAR char83
ENCODING 170
SWIDTH 8640 0
DWIDTH 9 0
BBX 9 16 0 -4
BITMAP
0000
0000
3E00
6300
6300
3000
1C00
0600
0300
6300
6300
3E00
0600
0300
3E00
0000
ENDCHAR
STARTCHAR char171
ENCODING 171
SWIDTH 8640 0
DWIDTH 9 0
BBX 9 16 0 -4
BITMAP
6600
3C00
FF00
DB00
9900
1800
1800
1800
1800
1800
1800
3C00
0000
0000
0000
0000
ENDCHAR
STARTCHAR char90
ENCODING 172
SWIDTH 8640 0
DWIDTH 9 0
BBX 9 16 0 -4
BITMAP
0C00
1800
FF00
C300
8600
0C00
1800
3000
6000
C100
C300
FF00
0000
0000
0000
0000
ENDCHAR
STARTCHAR char173
ENCODING 173
SWIDTH 8640 0
DWIDTH 9 0
BBX 9 16 0 -4
BITMAP
0000
0000
0000
0000
0000
0000
0000
FF80
0000
0000
0000
0000
0000
0000
0000
0000
ENDCHAR
STARTCHAR char174
ENCODING 174
SWIDTH 8640 0
DWIDTH 9 0
BBX 9 16 0 -4
BITMAP
6600
3C00
FF00
C300
8600
0C00
1800
3000
6000
C100
C300
FF00
0000
0000
0000
0000
ENDCHAR
STARTCHAR char90
ENCODING 175
SWIDTH 8640 0
DWIDTH 9 0
BBX 9 16 0 -4
BITMAP
0000
0000
FF00
C300
8600
0C00
7E00
3000
6000
C100
C300
FF00
0000
0000
0000
0000
ENDCHAR
STARTCHAR char176
ENCODING 176
SWIDTH 8640 0
DWIDTH 9 0
BBX 9 16 0 -4
BITMAP
0000
1C00
3600
3600
1C00
0000
0000
0000
0000
0000
0000
0000
0000
0000
0000
0000
ENDCHAR
STARTCHAR char97
ENCODING 177
SWIDTH 8640 0
DWIDTH 9 0
BBX 9 16 0 -4
BITMAP
0000
0000
0000
0000
0000
3C00
0600
3E00
6600
6600
6600
3B00
0600
0300
0000
0000
ENDCHAR
STARTCHAR char97
ENCODING 178
SWIDTH 8640 0
DWIDTH 9 0
BBX 9 16 0 -4
BITMAP
0000
0000
0000
0000
0000
0000
0000
0000
0000
0000
0000
0C00
1800
0E00
0000
0000
ENDCHAR
STARTCHAR char108
ENCODING 179
SWIDTH 8640 0
DWIDTH 9 0
BBX 9 16 0 -4
BITMAP
0000
0000
3800
1800
1E00
1C00
1800
3800
7800
1800
1800
3C00
0000
0000
0000
0000
ENDCHAR
STARTCHAR char180
ENCODING 180
SWIDTH 8640 0
DWIDTH 9 0
BBX 9 16 0 -4
BITMAP
1800
3000
6000
0000
0000
0000
0000
0000
0000
0000
0000
0000
0000
0000
0000
0000
ENDCHAR
STARTCHAR char108
ENCODING 181
SWIDTH 8640 0
DWIDTH 9 0
BBX 9 16 0 -4
BITMAP
0000
0000
3980
1980
1B00
1800
1800
1800
1800
1800
1800
3C00
0000
0000
0000
0000
ENDCHAR
STARTCHAR char115
ENCODING 182
SWIDTH 8640 0
DWIDTH 9 0
BBX 9 16 0 -4
BITMAP
0000
0000
0600
0C00
0000
3E00
6300
3000
1C00
0600
6300
3E00
0000
0000
0000
0000
ENDCHAR
STARTCHAR char171
ENCODING 183
SWIDTH 8640 0
DWIDTH 9 0
BBX 9 16 0 -4
BITMAP
6600
3C00
1800
0000
0000
0000
0000
0000
0000
0000
0000
0000
0000
0000
0000
0000
ENDCHAR
STARTCHAR char184
ENCODING 184
SWIDTH 8640 0
DWIDTH 9 0
BBX 9 16 0 -4
BITMAP
0080
0100
0300
0600
0C00
1C00
3000
7F00
7700
0E00
1C00
1800
3000
6000
8000
0000
ENDCHAR
STARTCHAR char185
ENCODING 185
SWIDTH 8640 0
DWIDTH 9 0
BBX 9 16 0 -4
BITMAP
0000
0000
0000
3600
1C00
3E00
6300
3000
1C00
0600
6300
3E00
0000
0000
0000
0000
ENDCHAR
STARTCHAR char115
ENCODING 186
SWIDTH 8640 0
DWIDTH 9 0
BBX 9 16 0 -4
BITMAP
0000
0000
0000
0000
0000
3E00
6300
3000
1C00
0600
6300
3E00
0300
1E00
0000
0000
ENDCHAR
STARTCHAR char187
ENCODING 187
SWIDTH 8640 0
DWIDTH 9 0
BBX 9 16 0 -4
BITMAP
0000
0180
0980
1B00
1800
7E00
1800
1800
1800
1800
1B00
0E00
0000
0000
0000
0000
ENDCHAR
STARTCHAR char122
ENCODING 188
SWIDTH 8640 0
DWIDTH 9 0
BBX 9 16 0 -4
BITMAP
0000
0000
0600
0C00
0000
7F00
6600
0C00
1800
3000
6300
7F00
0000
0000
0000
0000
ENDCHAR
STARTCHAR char189
ENCODING 189
SWIDTH 8640 0
DWIDTH 9 0
BBX 9 16 0 -4
BITMAP
0000
3300
6600
CC00
0000
0000
0000
0000
0000
0000
0000
0000
0000
0000
0000
0000
ENDCHAR
STARTCHAR char190
ENCODING 190
SWIDTH 8640 0
DWIDTH 9 0
BBX 9 16 0 -4
BITMAP
0000
0000
0000
6600
3C00
7F00
6600
0C00
1800
3000
6300
7F00
0000
0000
0000
0000
ENDCHAR
STARTCHAR char122
ENCODING 191
SWIDTH 8640 0
DWIDTH 9 0
BBX 9 16 0 -4
BITMAP
0000
0000
0C00
0C00
0000
7F00
6600
0C00
1800
3000
6300
7F00
0000
0000
0000
0000
ENDCHAR
STARTCHAR char82
ENCODING 192
SWIDTH 8640 0
DWIDTH 9 0
BBX 9 16 0 -4
BITMAP
0600
0C00
7E00
3300
3300
3300
3E00
3600
3300
3300
3300
7300
0000
0000
0000
0000
ENDCHAR
STARTCHAR char193
ENCODING 193
SWIDTH 8640 0
DWIDTH 9 0
BBX 9 16 0 -4
BITMAP
0300
0600
0000
1C00
3600
6300
6300
7F00
6300
6300
6300
6300
0000
0000
0000
0000
ENDCHAR
STARTCHAR char194
ENCODING 194
SWIDTH 8640 0
DWIDTH 9 0
BBX 9 16 0 -4
BITMAP
1C00
3600
0800
1C00
3600
6300
6300
7F00
6300
6300
6300
6300
0000
0000
0000
0000
ENDCHAR
STARTCHAR char195
ENCODING 195
SWIDTH 8640 0
DWIDTH 9 0
BBX 9 16 0 -4
BITMAP
6300
3E00
0000
1C00
3600
6300
6300
7F00
6300
6300
6300
6300
0000
0000
0000
0000
ENDCHAR
STARTCHAR char196
ENCODING 196
SWIDTH 8640 0
DWIDTH 9 0
BBX 9 16 0 -4
BITMAP
6300
0000
0800
1C00
3600
6300
6300
7F00
6300
6300
6300
6300
0000
0000
0000
0000
ENDCHAR
STARTCHAR char76
ENCODING 197
SWIDTH 8640 0
DWIDTH 9 0
BBX 9 16 0 -4
BITMAP
0C00
1800
7C00
3000
3000
3000
3000
3000
3000
3100
3300
7F00
0000
0000
0000
0000
ENDCHAR
STARTCHAR char67
ENCODING 198
SWIDTH 8640 0
DWIDTH 9 0
BBX 9 16 0 -4
BITMAP
0600
0C00
1E00
3300
6100
6000
6000
6000
6000
6100
3300
1E00
0000
0000
0000
0000
ENDCHAR
STARTCHAR char199
ENCODING 199
SWIDTH 8640 0
DWIDTH 9 0
BBX 9 16 0 -4
BITMAP
0000
0000
0000
1E00
3300
6100
6000
6000
6000
6100
3300
1E00
0600
0300
3E00
0000
ENDCHAR
STARTCHAR char200
ENCODING 200
SWIDTH 8640 0
DWIDTH 9 0
BBX 9 16 0 -4
BITMAP
3300
1E00
1E00
3300
6100
6000
6000
6000
6000
6100
3300
1E00
0000
0000
0000
0000
ENDCHAR
STARTCHAR char201
ENCODING 201
SWIDTH 8640 0
DWIDTH 9 0
BBX 9 16 0 -4
BITMAP
0C00
1800
7F00
3300
3100
3400
3C00
3400
3000
3100
3300
7F00
0000
0000
0000
0000
ENDCHAR
STARTCHAR char202
ENCODING 202
SWIDTH 8640 0
DWIDTH 9 0
BBX 9 16 0 -4
BITMAP
0000
0000
7F00
3300
3100
3400
3C00
3400
3000
3100
3300
7F00
0C00
0600
0000
0000
ENDCHAR
STARTCHAR char203
ENCODING 203
SWIDTH 8640 0
DWIDTH 9 0
BBX 9 16 0 -4
BITMAP
6300
0000
7F00
3300
3100
3400
3C00
3400
3000
3100
3300
7F00
0000
0000
0000
0000
ENDCHAR
STARTCHAR char204
ENCODING 204
SWIDTH 8640 0
DWIDTH 9 0
BBX 9 16 0 -4
BITMAP
3300
1E00
7F00
3300
3100
3400
3C00
3400
3000
3100
3300
7F00
0000
0000
0000
0000
ENDCHAR
STARTCHAR char205
ENCODING 205
SWIDTH 8640 0
DWIDTH 9 0
BBX 9 16 0 -4
BITMAP
0C00
1800
0000
3C00
1800
1800
1800
1800
1800
1800
1800
3C00
0000
0000
0000
0000
ENDCHAR
STARTCHAR char206
ENCODING 206
SWIDTH 8640 0
DWIDTH 9 0
BBX 9 16 0 -4
BITMAP
3C00
6600
0000
3C00
1800
1800
1800
1800
1800
1800
1800
3C00
0000
0000
0000
0000
ENDCHAR
STARTCHAR char207
ENCODING 207
SWIDTH 8640 0
DWIDTH 9 0
BBX 9 16 0 -4
BITMAP
6600
3C00
7C00
3600
3300
3300
3300
3300
3300
3300
3600
7C00
0000
0000
0000
0000
ENDCHAR
STARTCHAR char208
ENCODING 208
SWIDTH 8640 0
DWIDTH 9 0
BBX 9 16 0 -4
BITMAP
0000
0000
3C00
3600
3300
3300
7B00
7B00
3300
3300
3600
3C00
0000
0000
0000
0000
ENDCHAR
STARTCHAR char78
ENCODING 209
SWIDTH 8640 0
DWIDTH 9 0
BBX 9 16 0 -4
BITMAP
0C00
1800
6300
7300
7B00
7F00
6F00
6700
6300
6300
6300
6300
0000
0000
0000
0000
ENDCHAR
STARTCHAR char210
ENCODING 210
SWIDTH 8640 0
DWIDTH 9 0
BBX 9 16 0 -4
BITMAP
6600
3C00
6300
7300
7B00
7F00
6F00
6700
6300
6300
6300
6300
0000
0000
0000
0000
ENDCHAR
STARTCHAR char211
ENCODING 211
SWIDTH 8640 0
DWIDTH 9 0
BBX 9 16 0 -4
BITMAP
0600
0C00
3E00
6300
6300
6300
6300
6300
6300
6300
6300
3E00
0000
0000
0000
0000
ENDCHAR
STARTCHAR char212
ENCODING 212
SWIDTH 8640 0
DWIDTH 9 0
BBX 9 16 0 -4
BITMAP
1C00
3600
3E00
6300
6300
6300
6300
6300
6300
6300
6300
3E00
0000
0000
0000
0000
ENDCHAR
STARTCHAR char213
ENCODING 213
SWIDTH 8640 0
DWIDTH 9 0
BBX 9 16 0 -4
BITMAP
3300
6600
3E00
6300
6300
6300
6300
6300
6300
6300
6300
3E00
0000
0000
0000
0000
ENDCHAR
STARTCHAR char214
ENCODING 214
SWIDTH 8640 0
DWIDTH 9 0
BBX 9 16 0 -4
BITMAP
6300
0000
3E00
6300
6300
6300
6300
6300
6300
6300
6300
3E00
0000
0000
0000
0000
ENDCHAR
STARTCHAR char215
ENCODING 215
SWIDTH 8640 0
DWIDTH 9 0
BBX 9 16 0 -4
BITMAP
0000
0000
0000
0000
6300
3600
1C00
0800
1C00
3600
6300
0000
0000
0000
0000
0000
ENDCHAR
STARTCHAR char216
ENCODING 216
SWIDTH 8640 0
DWIDTH 9 0
BBX 9 16 0 -4
BITMAP
6600
3C00
7E00
3300
3300
3300
3E00
3600
3300
3300
3300
7300
0000
0000
0000
0000
ENDCHAR
STARTCHAR char217
ENCODING 217
SWIDTH 8640 0
DWIDTH 9 0
BBX 9 16 0 -4
BITMAP
0800
1400
6B00
6300
6300
6300
6300
6300
6300
6300
6300
3E00
0000
0000
0000
0000
ENDCHAR
STARTCHAR char218
ENCODING 218
SWIDTH 8640 0
DWIDTH 9 0
BBX 9 16 0 -4
BITMAP
0600
0C00
6300
6300
6300
6300
6300
6300
6300
6300
6300
3E00
0000
0000
0000
0000
ENDCHAR
STARTCHAR char219
ENCODING 219
SWIDTH 8640 0
DWIDTH 9 0
BBX 9 16 0 -4
BITMAP
1B00
3600
6300
6300
6300
6300
6300
6300
6300
6300
6300
3E00
0000
0000
0000
0000
ENDCHAR
STARTCHAR char220
ENCODING 220
SWIDTH 8640 0
DWIDTH 9 0
BBX 9 16 0 -4
BITMAP
6300
0000
6300
6300
6300
6300
6300
6300
6300
6300
6300
3E00
0000
0000
0000
0000
ENDCHAR
STARTCHAR char221
ENCODING 221
SWIDTH 8640 0
DWIDTH 9 0
BBX 9 16 0 -4
BITMAP
1800
3000
C300
C300
C300
6600
3C00
1800
1800
1800
1800
3C00
0000
0000
0000
0000
ENDCHAR
STARTCHAR char84
ENCODING 222
SWIDTH 8640 0
DWIDTH 9 0
BBX 9 16 0 -4
BITMAP
0000
0000
FF00
DB00
9900
1800
1800
1800
1800
1800
1800
3C00
0600
3C00
0000
0000
ENDCHAR
STARTCHAR char223
ENCODING 223
SWIDTH 8640 0
DWIDTH 9 0
BBX 9 16 0 -4
BITMAP
0000
0000
1C00
3600
6300
6700
6E00
6C00
6600
6300
6B00
6E00
6000
4000
0000
0000
ENDCHAR
STARTCHAR char224
ENCODING 224
SWIDTH 8640 0
DWIDTH 9 0
BBX 9 16 0 -4
BITMAP
0000
0000
0000
0C00
1800
6E00
3B00
3300
3000
3000
3000
7800
0000
0000
0000
0000
ENDCHAR
STARTCHAR char225
ENCODING 225
SWIDTH 8640 0
DWIDTH 9 0
BBX 9 16 0 -4
BITMAP
0000
0C00
1800
3000
0000
3C00
0600
3E00
6600
6600
6600
3B00
0000
0000
0000
0000
ENDCHAR
STARTCHAR char226
ENCODING 226
SWIDTH 8640 0
DWIDTH 9 0
BBX 9 16 0 -4
BITMAP
0000
0800
1C00
3600
0000
3C00
0600
3E00
6600
6600
6600
3B00
0000
0000
0000
0000
ENDCHAR
STARTCHAR char227
ENCODING 227
SWIDTH 8640 0
DWIDTH 9 0
BBX 9 16 0 -4
BITMAP
0000
0000
6600
3C00
0000
3C00
0600
3E00
6600
6600
6600
3B00
0000
0000
0000
0000
ENDCHAR
STARTCHAR char228
ENCODING 228
SWIDTH 8640 0
DWIDTH 9 0
BBX 9 16 0 -4
BITMAP
0000
0000
6600
0000
0000
3C00
0600
3E00
6600
6600
6600
3B00
0000
0000
0000
0000
ENDCHAR
STARTCHAR char108
ENCODING 229
SWIDTH 8640 0
DWIDTH 9 0
BBX 9 16 0 -4
BITMAP
0C00
1800
0000
3800
1800
1800
1800
1800
1800
1800
1800
3C00
0000
0000
0000
0000
ENDCHAR
STARTCHAR char99
ENCODING 230
SWIDTH 8640 0
DWIDTH 9 0
BBX 9 16 0 -4
BITMAP
0000
0000
0600
0C00
0000
3E00
6300
6000
6000
6000
6300
3E00
0000
0000
0000
0000
ENDCHAR
STARTCHAR char231
ENCODING 231
SWIDTH 8640 0
DWIDTH 9 0
BBX 9 16 0 -4
BITMAP
0000
0000
0000
0000
0000
3E00
6300
6000
6000
6000
6300
3E00
0C00
0600
3C00
0000
ENDCHAR
STARTCHAR char232
ENCODING 232
SWIDTH 8640 0
DWIDTH 9 0
BBX 9 16 0 -4
BITMAP
0000
0000
0000
6600
3C00
3E00
6300
6000
6000
6000
6300
3E00
0000
0000
0000
0000
ENDCHAR
STARTCHAR char233
ENCODING 233
SWIDTH 8640 0
DWIDTH 9 0
BBX 9 16 0 -4
BITMAP
0000
0600
0C00
1800
0000
3E00
6300
7F00
6000
6000
6300
3E00
0000
0000
0000
0000
ENDCHAR
STARTCHAR char234
ENCODING 234
SWIDTH 8640 0
DWIDTH 9 0
BBX 9 16 0 -4
BITMAP
0000
0000
0000
0000
0000
3E00
6300
7F00
6000
6000
6300
3E00
1800
0E00
0000
0000
ENDCHAR
STARTCHAR char235
ENCODING 235
SWIDTH 8640 0
DWIDTH 9 0
BBX 9 16 0 -4
BITMAP
0000
0000
6300
0000
0000
3E00
6300
7F00
6000
6000
6300
3E00
0000
0000
0000
0000
ENDCHAR
STARTCHAR char236
ENCODING 236
SWIDTH 8640 0
DWIDTH 9 0
BBX 9 16 0 -4
BITMAP
0000
0000
0000
3300
1E00
3E00
6300
7F00
6000
6000
6300
3E00
0000
0000
0000
0000
ENDCHAR
STARTCHAR char237
ENCODING 237
SWIDTH 8640 0
DWIDTH 9 0
BBX 9 16 0 -4
BITMAP
0000
0600
0C00
1800
0000
3800
1800
1800
1800
1800
1800
3C00
0000
0000
0000
0000
ENDCHAR
STARTCHAR char238
ENCODING 238
SWIDTH 8640 0
DWIDTH 9 0
BBX 9 16 0 -4
BITMAP
0000
1800
3C00
6600
0000
3800
1800
1800
1800
1800
1800
3C00
0000
0000
0000
0000
ENDCHAR
STARTCHAR char239
ENCODING 239
SWIDTH 8640 0
DWIDTH 9 0
BBX 9 16 0 -4
BITMAP
0000
6000
6E00
3600
0600
1E00
3600
6600
6600
6600
6600
3B00
0000
0000
0000
0000
ENDCHAR
STARTCHAR char100
ENCODING 240
SWIDTH 8640 0
DWIDTH 9 0
BBX 9 16 0 -4
BITMAP
0000
0000
0E00
0600
0F00
0600
3E00
6600
6600
6600
6600
3B00
0000
0000
0000
0000
ENDCHAR
STARTCHAR char241
ENCODING 241
SWIDTH 8640 0
DWIDTH 9 0
BBX 9 16 0 -4
BITMAP
0000
0000
0600
0C00
0000
6E00
3300
3300
3300
3300
3300
3300
0000
0000
0000
0000
ENDCHAR
STARTCHAR char242
ENCODING 242
SWIDTH 8640 0
DWIDTH 9 0
BBX 9 16 0 -4
BITMAP
0000
0000
0000
3300
1E00
6E00
3300
3300
3300
3300
3300
3300
0000
0000
0000
0000
ENDCHAR
STARTCHAR char243
ENCODING 243
SWIDTH 8640 0
DWIDTH 9 0
BBX 9 16 0 -4
BITMAP
0000
0000
0600
0C00
0000
3E00
6300
6300
6300
6300
6300
3E00
0000
0000
0000
0000
ENDCHAR
STARTCHAR char244
ENCODING 244
SWIDTH 8640 0
DWIDTH 9 0
BBX 9 16 0 -4
BITMAP
0000
0800
1C00
3600
0000
3E00
6300
6300
6300
6300
6300
3E00
0000
0000
0000
0000
ENDCHAR
STARTCHAR char245
ENCODING 245
SWIDTH 8640 0
DWIDTH 9 0
BBX 9 16 0 -4
BITMAP
0000
0000
3300
6600
0000
3E00
6300
6300
6300
6300
6300
3E00
0000
0000
0000
0000
ENDCHAR
STARTCHAR char246
ENCODING 246
SWIDTH 8640 0
DWIDTH 9 0
BBX 9 16 0 -4
BITMAP
0000
0000
6300
0000
0000
3E00
6300
6300
6300
6300
6300
3E00
0000
0000
0000
0000
ENDCHAR
STARTCHAR char247
ENCODING 247
SWIDTH 8640 0
DWIDTH 9 0
BBX 9 16 0 -4
BITMAP
0000
0000
0000
0000
1800
1800
0000
7E00
0000
1800
1800
0000
0000
0000
0000
0000
ENDCHAR
STARTCHAR char248
ENCODING 248
SWIDTH 8640 0
DWIDTH 9 0
BBX 9 16 0 -4
BITMAP
0000
0000
0000
3300
1E00
6E00
3B00
3300
3000
3000
3000
7800
0000
0000
0000
0000
ENDCHAR
STARTCHAR char249
ENCODING 249
SWIDTH 8640 0
DWIDTH 9 0
BBX 9 16 0 -4
BITMAP
0000
1800
2400
2400
1800
6600
6600
6600
6600
6600
6600
3B00
0000
0000
0000
0000
ENDCHAR
STARTCHAR char250
ENCODING 250
SWIDTH 8640 0
DWIDTH 9 0
BBX 9 16 0 -4
BITMAP
0000
0C00
1800
3000
0000
6600
6600
6600
6600
6600
6600
3B00
0000
0000
0000
0000
ENDCHAR
STARTCHAR char251
ENCODING 251
SWIDTH 8640 0
DWIDTH 9 0
BBX 9 16 0 -4
BITMAP
0000
0000
3300
6600
0000
6600
6600
6600
6600
6600
6600
3B00
0000
0000
0000
0000
ENDCHAR
STARTCHAR char252
ENCODING 252
SWIDTH 8640 0
DWIDTH 9 0
BBX 9 16 0 -4
BITMAP
0000
0000
6600
0000
0000
6600
6600
6600
6600
6600
6600
3B00
0000
0000
0000
0000
ENDCHAR
STARTCHAR char253
ENCODING 253
SWIDTH 8640 0
DWIDTH 9 0
BBX 9 16 0 -4
BITMAP
0000
0C00
1800
3000
0000
6300
6300
6300
6300
6300
6300
3F00
0300
0600
7C00
0000
ENDCHAR
STARTCHAR char116
ENCODING 254
SWIDTH 8640 0
DWIDTH 9 0
BBX 9 16 0 -4
BITMAP
0000
0000
0800
1800
1800
7E00
1800
1800
1800
1800
1B00
0E00
0300
1E00
0000
0000
ENDCHAR
STARTCHAR char255
ENCODING 255
SWIDTH 8640 0
DWIDTH 9 0
BBX 9 16 0 -4
BITMAP
0000
0C00
0000
0000
0000
0000
0000
0000
0000
0000
0000
0000
0000
0000
0000
0000
ENDCHAR
ENDFONT
